<svg width="149" height="37" viewBox="0 0 149 37" fill="none" xmlns="http://www.w3.org/2000/svg">
<path d="M6.95 18.85C5.08333 18.2167 3.7 17.2667 2.8 16C1.9 14.7333 1.45 13 1.45 10.8C1.45 7.73333 2.61667 5.28333 4.95 3.45C7.28333 1.58333 9.65 0.649999 12.05 0.649999C14.4833 0.649999 16.6167 1.2 18.45 2.3C20.3167 3.36667 21.25 4.83333 21.25 6.7C21.25 7.83333 20.9 8.7 20.2 9.3C19.5 9.9 18.65 10.2 17.65 10.2C16.6833 10.2 15.9 9.93333 15.3 9.4C14.7333 8.83333 14.45 8.31667 14.45 7.85C14.45 7.35 14.5333 7.1 14.7 7.1C14.9 7.1 15.0667 7.21667 15.2 7.45C15.3333 7.65 15.45 7.88333 15.55 8.15C15.8167 8.85 16.3833 9.2 17.25 9.2C18.15 9.2 18.85 8.98333 19.35 8.55C19.8833 8.11667 20.15 7.5 20.15 6.7C20.15 5.23333 19.3333 4.03333 17.7 3.1C16.0667 2.16666 14.2167 1.7 12.15 1.7C10.0833 1.7 8.15 2.33333 6.35 3.6C4.55 4.86667 3.65 6.46667 3.65 8.4C3.65 9.7 4.1 10.7833 5 11.65C5.93333 12.4833 6.96667 13.0833 8.1 13.45C9.26667 13.8167 10.7667 14.25 12.6 14.75C14.4667 15.25 15.9167 15.7333 16.95 16.2C20.55 17.8 22.35 20.6833 22.35 24.85C22.35 26.95 21.95 28.8 21.15 30.4C20.3833 32 19.4 33.2167 18.2 34.05C15.8333 35.65 13.45 36.45 11.05 36.45C8.85 36.45 6.58333 35.7667 4.25 34.4C3.11667 33.7333 2.18333 32.8 1.45 31.6C0.716667 30.4 0.35 29 0.35 27.4C0.35 25.7667 0.783334 24.5833 1.65 23.85C2.55 23.0833 3.33333 22.7 4 22.7C4.7 22.7 5.3 22.85 5.8 23.15C6.3 23.45 6.55 23.7833 6.55 24.15C6.55 24.5167 6.46667 24.7 6.3 24.7C6.13333 24.7 6 24.65 5.9 24.55C5.83333 24.45 5.76667 24.3333 5.7 24.2C5.46667 23.8667 4.91667 23.7 4.05 23.7C3.21667 23.7 2.53333 24.0667 2 24.8C1.5 25.5 1.25 26.4 1.25 27.5C1.25 29.9 2.26667 31.8333 4.3 33.3C6.33333 34.7333 8.51667 35.45 10.85 35.45C14.05 35.45 16.6 34.3667 18.5 32.2C19.6 30.9 20.15 29.2333 20.15 27.2C20.15 25.1667 19.45 23.65 18.05 22.65C16.6833 21.6167 14.75 20.8167 12.25 20.25C9.75 19.65 7.98333 19.1833 6.95 18.85ZM23.8789 13.85V12.85H28.4789V6H33.4789V12.85H38.7289V13.85H33.4789V29.3C33.4789 33.4333 34.3789 35.5 36.1789 35.5C36.8789 35.5 37.5289 35.2833 38.1289 34.85C38.7289 34.3833 39.1956 33.9333 39.5289 33.5C39.8622 33.0333 40.0956 32.8 40.2289 32.8C40.3622 32.8 40.4289 32.8833 40.4289 33.05C40.4289 33.1833 40.3789 33.35 40.2789 33.55C39.2789 35.5167 37.4456 36.5 34.7789 36.5C32.6456 36.5 31.0622 35.6833 30.0289 34.05C28.9956 32.4167 28.4789 30.2333 28.4789 27.5V13.85H23.8789ZM41.8363 24.45C41.8363 21.05 43.003 18.2 45.3363 15.9C47.703 13.6 50.7197 12.45 54.3863 12.45C58.0863 12.45 61.0863 13.5333 63.3863 15.7C65.6863 17.8667 66.8363 20.7167 66.8363 24.25C66.8363 26.35 66.4363 28.2167 65.6363 29.85C64.8363 31.45 63.803 32.7 62.5363 33.6C59.9363 35.3667 57.2197 36.25 54.3863 36.25C51.6197 36.25 48.9197 35.3333 46.2863 33.5C44.9863 32.6 43.9197 31.3667 43.0863 29.8C42.253 28.2 41.8363 26.4167 41.8363 24.45ZM56.0863 21.25L54.6363 20.95C54.003 20.95 53.453 21.2333 52.9863 21.8C52.553 22.3333 52.3363 22.9833 52.3363 23.75C52.3363 24.4833 52.6697 25.2167 53.3363 25.95C54.003 26.6833 54.9363 27.05 56.1363 27.05C57.3697 27.05 58.5697 26.4667 59.7363 25.3C60.9363 24.1 61.5363 22.4167 61.5363 20.25C61.5363 18.0833 60.8363 16.4167 59.4363 15.25C58.0697 14.05 56.3363 13.45 54.2363 13.45C52.903 13.45 51.753 13.7167 50.7863 14.25C49.8197 14.75 49.0863 15.3667 48.5863 16.1C48.0863 16.8333 47.703 17.7667 47.4363 18.9C47.0363 20.5667 46.8363 22.5 46.8363 24.7C46.8363 31.7333 49.403 35.25 54.5363 35.25C57.5697 35.25 59.5697 34.1 60.5363 31.8C61.3697 29.8333 61.7863 27.2833 61.7863 24.15C61.4863 25.0167 60.7863 25.8833 59.6863 26.75C58.6197 27.6167 57.4363 28.05 56.1363 28.05C54.8363 28.05 53.703 27.6167 52.7363 26.75C51.803 25.85 51.3363 24.85 51.3363 23.75C51.3363 22.65 51.6363 21.75 52.2363 21.05C52.8363 20.3167 53.6863 19.95 54.7863 19.95C55.9197 19.95 56.4863 20.2667 56.4863 20.9C56.4863 21.1333 56.353 21.25 56.0863 21.25ZM88.1078 14.75C88.1078 15.1167 87.9578 15.4 87.6578 15.6C87.3911 15.8 87.0411 15.9 86.6078 15.9C86.1745 15.9 85.8245 15.7833 85.5578 15.55C85.2911 15.2833 85.1078 15 85.0078 14.7C84.9411 14.4 84.7411 14.1333 84.4078 13.9C84.0745 13.6333 83.6078 13.5 83.0078 13.5C81.5411 13.5 80.1745 14.5667 78.9078 16.7C77.6411 18.8333 76.9078 21.25 76.7078 23.95V36H71.7078V12.85H76.7078V18.75C77.5078 16.8167 78.5411 15.2167 79.8078 13.95C81.1078 12.65 82.4078 12 83.7078 12C85.0078 12 86.0578 12.2333 86.8578 12.7C87.6911 13.1333 88.1078 13.8167 88.1078 14.75ZM96.5172 34.25C96.9839 34.5833 97.5672 34.8667 98.2672 35.1C99.0005 35.3333 99.8839 35.45 100.917 35.45C101.951 35.45 103.051 35.2167 104.217 34.75C105.384 34.25 106.201 33.5167 106.667 32.55H108.117C106.817 35.1833 104.084 36.5 99.9172 36.5C96.7172 36.5 94.0005 35.3667 91.7672 33.1C89.5672 30.8 88.4672 27.9333 88.4672 24.5C88.4672 21.0333 89.6339 18.15 91.9672 15.85C94.3005 13.5167 96.8339 12.35 99.5672 12.35C102.334 12.35 104.501 13.1167 106.067 14.65C107.667 16.15 108.467 17.9333 108.467 20C108.467 22.0667 107.617 23.9 105.917 25.5C104.217 27.1 101.984 27.9 99.2172 27.9C96.4505 27.9 94.5172 26.7167 93.4172 24.35C93.4505 24.5833 93.4839 25.0833 93.5172 25.85C93.5839 26.6167 93.6339 27.2167 93.6672 27.65C93.7005 28.0833 93.7839 28.6833 93.9172 29.45C94.0839 30.2167 94.2505 30.8333 94.4172 31.3C94.6172 31.7667 94.9005 32.3 95.2672 32.9C95.6339 33.4667 96.0505 33.9167 96.5172 34.25ZM104.167 19.75C104.167 15.45 102.534 13.3 99.2672 13.3C97.6672 13.3 96.3505 14.0833 95.3172 15.65C94.3172 17.1833 93.7505 19.05 93.6172 21.25C94.0172 20.3167 94.6172 19.5667 95.4172 19C96.2505 18.4333 97.1005 18.15 97.9672 18.15C98.8672 18.15 99.3172 18.3167 99.3172 18.65C99.3172 18.95 99.1172 19.1 98.7172 19.1C97.1839 19.2 96.0505 19.5833 95.3172 20.25C94.6172 20.9167 94.2672 21.8167 94.2672 22.95C94.2672 24.0833 94.6672 25.05 95.4672 25.85C96.3005 26.6167 97.2672 27 98.3672 27C100.167 27 101.584 26.2833 102.617 24.85C103.651 23.3833 104.167 21.6833 104.167 19.75ZM121.061 36.5C118.827 36.5 116.711 35.95 114.711 34.85C112.711 33.7167 111.711 32.15 111.711 30.15C111.711 29.6167 111.844 29.1167 112.111 28.65C112.377 28.1833 112.711 27.95 113.111 27.95C113.544 27.95 113.877 28.0833 114.111 28.35C114.344 28.6167 114.461 28.8833 114.461 29.15C114.461 29.4167 114.294 29.8 113.961 30.3C113.627 30.7667 113.461 31.15 113.461 31.45C113.461 32.4833 114.344 33.4167 116.111 34.25C117.877 35.0833 119.561 35.5 121.161 35.5C122.794 35.5 124.361 34.9667 125.861 33.9C127.394 32.8333 128.161 31.4833 128.161 29.85C128.161 28.35 127.327 27.3 125.661 26.7C124.594 26.2667 122.777 25.85 120.211 25.45C117.644 25.0167 115.644 24.3167 114.211 23.35C112.777 22.3833 112.061 20.8833 112.061 18.85C112.061 17.6167 112.377 16.55 113.011 15.65C113.644 14.75 114.461 14.0667 115.461 13.6C117.427 12.7 119.361 12.25 121.261 12.25C123.194 12.25 124.894 12.5833 126.361 13.25C127.861 13.9167 128.844 14.75 129.311 15.75C129.511 16.2167 129.611 16.6167 129.611 16.95C129.611 17.75 129.194 18.15 128.361 18.15C127.461 18.15 126.994 17.6 126.961 16.5C126.894 15.2667 126.411 14.4167 125.511 13.95C124.377 13.4833 122.944 13.25 121.211 13.25C119.511 13.25 117.944 13.6667 116.511 14.5C115.077 15.3 114.361 16.3333 114.361 17.6C114.361 19.1333 115.744 20 118.511 20.2C121.277 20.3667 123.844 20.85 126.211 21.65C127.411 22.05 128.394 22.8167 129.161 23.95C129.961 25.05 130.361 26.4 130.361 28C130.361 29.5667 130.077 30.9 129.511 32C128.944 33.1 128.194 33.9667 127.261 34.6C125.394 35.8667 123.327 36.5 121.061 36.5ZM131.984 13.85V12.85H136.584V6H141.584V12.85H146.834V13.85H141.584V29.3C141.584 33.4333 142.484 35.5 144.284 35.5C144.984 35.5 145.634 35.2833 146.234 34.85C146.834 34.3833 147.301 33.9333 147.634 33.5C147.968 33.0333 148.201 32.8 148.334 32.8C148.468 32.8 148.534 32.8833 148.534 33.05C148.534 33.1833 148.484 33.35 148.384 33.55C147.384 35.5167 145.551 36.5 142.884 36.5C140.751 36.5 139.168 35.6833 138.134 34.05C137.101 32.4167 136.584 30.2333 136.584 27.5V13.85H131.984Z" fill="white"/>
</svg>
